<svg xmlns="http://www.w3.org/2000/svg" viewBox="0 0 512 512">
  <defs>
    <linearGradient id="bg" x1="0%" y1="0%" x2="100%" y2="100%">
      <stop offset="0%" style="stop-color:#6366f1"/>
      <stop offset="100%" style="stop-color:#4f46e5"/>
    </linearGradient>
    <linearGradient id="shield" x1="0%" y1="0%" x2="0%" y2="100%">
      <stop offset="0%" style="stop-color:#ffffff;stop-opacity:0.95"/>
      <stop offset="100%" style="stop-color:#e0e7ff;stop-opacity:0.85"/>
    </linearGradient>
  </defs>
  <rect width="512" height="512" rx="96" fill="url(#bg)"/>
  <path d="M256 96 C256 96 160 128 128 160 C96 224 96 288 128 352 C160 384 224 416 256 416 C288 416 352 384 384 352 C416 288 416 224 384 160 C352 128 256 96 256 96Z" fill="url(#shield)" opacity="0.9"/>
  <path d="M256 144 C256 144 184 168 160 192 C136 240 136 288 160 336 C184 360 232 384 256 384 C280 384 328 360 352 336 C376 288 376 240 352 192 C328 168 256 144 256 144Z" fill="url(#bg)" opacity="0.3"/>
  <circle cx="256" cy="248" r="32" fill="white" opacity="0.9"/>
  <path d="M240 272 L256 304 L304 216" stroke="white" stroke-width="16" stroke-linecap="round" stroke-linejoin="round" fill="none" opacity="0.9"/>
</svg>
